<?xml version="1.0" encoding="UTF-8"?>
<!-- Created with Inkscape (http://www.inkscape.org/) -->
<svg width="173.46mm" height="173.46mm" version="1.1" viewBox="0 0 173.46 173.46" xml:space="preserve" xmlns="http://www.w3.org/2000/svg"><defs><clipPath id="clipPath51"><path d="m104.45 46.793c-47.749 0-86.729 38.981-86.729 86.73s38.979 86.73 86.729 86.73c47.749 0 86.73-38.981 86.73-86.73s-38.981-86.73-86.73-86.73z" fill="#8a6ced" stop-color="#000000" stroke-linecap="round" stroke-linejoin="round"/></clipPath></defs><g transform="translate(-17.721 -46.793)"><g clip-path="url(#clipPath51)" stroke-linecap="round" stroke-linejoin="round"><g fill="none" stroke="#ed6c9f"><path d="m30.261 126.58c19.732-1.4232 40.397 8.514 56.429 9.9262 15.631 2.3742 28.938-2.8086 42.435-10.094 19.111-9.4534 42.336 16.285 45.228 29.301" stroke-width="3"/><g stroke-width="12.7"><path d="m30.261 126.58c19.732-1.4232 40.397 8.514 56.429 9.9262 15.631 2.3742 28.938-2.8086 42.435-10.094 19.111-9.4534 42.336 16.285 45.228 29.301"/><path d="m23.911 151.98c19.732-1.4232 40.397 8.514 56.429 9.9262 15.631 2.3742 28.938-2.8086 42.435-10.094 19.111-9.4534 42.336 16.285 45.228 29.301"/><path d="m36.611 101.18c19.732-1.4232 40.397 8.514 56.429 9.9262 15.631 2.3742 28.938-2.8086 42.435-10.094 19.111-9.4534 42.336 16.285 45.228 29.301"/><path d="m30.261 126.58c19.732-1.4232 40.397 8.514 56.429 9.9262 15.631 2.3742 28.938-2.8086 42.435-10.094 19.111-9.4534 42.336 16.285 45.228 29.301"/><path d="m42.961 75.782c19.732-1.4232 40.397 8.514 56.429 9.9262 15.631 2.3742 28.938-2.8086 42.435-10.094 19.111-9.4534 42.336 16.285 45.228 29.301"/><path d="m36.611 101.18c19.732-1.4232 40.397 8.514 56.429 9.9262 15.631 2.3742 28.938-2.8086 42.435-10.094 19.111-9.4534 42.336 16.285 45.228 29.301"/><path d="m23.911 151.98c19.732-1.4232 40.397 8.514 56.429 9.9262 15.631 2.3742 28.938-2.8086 42.435-10.094 19.111-9.4534 42.336 16.285 45.228 29.301"/><path d="m17.561 177.38c19.732-1.4232 40.397 8.514 56.429 9.9262 15.631 2.3742 28.938-2.8086 42.435-10.094 19.111-9.4534 42.336 16.285 45.228 29.301"/><path d="m17.561 177.38c19.732-1.4232 40.397 8.514 56.429 9.9262 15.631 2.3742 28.938-2.8086 42.435-10.094 19.111-9.4534 42.336 16.285 45.228 29.301"/><path d="m11.211 202.78c19.732-1.4232 40.397 8.514 56.429 9.9262 15.631 2.3742 28.938-2.8086 42.435-10.094 19.111-9.4534 42.336 16.285 45.228 29.301"/></g></g><path d="m104.45 46.793c-47.749 0-86.729 38.981-86.729 86.73 0 47.749 38.979 86.73 86.729 86.73 47.749 0 86.73-38.981 86.73-86.73 0-47.749-38.981-86.73-86.73-86.73zm0 25.4c34.022 0 61.332 27.308 61.332 61.33 0 34.022-27.31 61.33-61.332 61.33-34.022 0-61.33-27.308-61.33-61.33 0-34.022 27.308-61.33 61.33-61.33z" fill="#8a6ced" stop-color="#000000"/></g></g></svg>
