<?xml version="1.0" encoding="UTF-8" standalone="no"?>
<!-- Created with Inkscape (http://www.inkscape.org/) -->

<svg
   width="173.45898mm"
   height="173.46094mm"
   viewBox="0 0 173.45898 173.46094"
   version="1.1"
   id="svg1"
   xml:space="preserve"
   inkscape:version="1.4.4 (dcaf3e7d9e, 2026-05-05)"
   sodipodi:docname="org.bloompa.EqualizerPWF.svg"
   xmlns:inkscape="http://www.inkscape.org/namespaces/inkscape"
   xmlns:sodipodi="http://sodipodi.sourceforge.net/DTD/sodipodi-0.dtd"
   xmlns="http://www.w3.org/2000/svg"
   xmlns:svg="http://www.w3.org/2000/svg"><sodipodi:namedview
     id="namedview1"
     pagecolor="#ffffff"
     bordercolor="#000000"
     borderopacity="0.25"
     inkscape:showpageshadow="2"
     inkscape:pageopacity="0.0"
     inkscape:pagecheckerboard="0"
     inkscape:deskcolor="#d1d1d1"
     inkscape:document-units="mm"
     inkscape:zoom="0.62645336"
     inkscape:cx="350.38522"
     inkscape:cy="367.14625"
     inkscape:window-width="1700"
     inkscape:window-height="1087"
     inkscape:window-x="0"
     inkscape:window-y="0"
     inkscape:window-maximized="1"
     inkscape:current-layer="layer1" /><defs
     id="defs1"><inkscape:path-effect
       effect="tiling"
       id="path-effect34"
       is_visible="true"
       lpeversion="1.3.1"
       unit="px"
       seed="1;1"
       lpesatellites=""
       num_rows="3"
       num_cols="1"
       gapx="0"
       gapy="0"
       offset="0"
       offset_type="false"
       scale="0"
       rotate="0"
       mirrorrowsx="false"
       mirrorrowsy="false"
       mirrorcolsx="false"
       mirrorcolsy="false"
       mirrortrans="false"
       shrink_interp="false"
       split_items="false"
       link_styles="false"
       interpolate_scalex="false"
       interpolate_scaley="true"
       interpolate_rotatex="false"
       interpolate_rotatey="true"
       random_scale="false"
       random_rotate="false"
       random_gap_y="false"
       random_gap_x="false"
       transformorigin="" /><inkscape:path-effect
       effect="clone_original"
       linkeditem=""
       id="path-effect7"
       is_visible="true"
       lpeversion="1"
       method="d"
       attributes=""
       css_properties=""
       allow_transforms="true" /><inkscape:path-effect
       effect="offset"
       id="path-effect6"
       is_visible="true"
       lpeversion="1.3"
       linejoin_type="miter"
       unit="mm"
       offset="0"
       miter_limit="4"
       attempt_force_join="false"
       update_on_knot_move="true" /><inkscape:path-effect
       effect="tiling"
       id="path-effect5"
       is_visible="true"
       lpeversion="1.3.1"
       unit="px"
       seed="1;1"
       lpesatellites=""
       num_rows="4"
       num_cols="1"
       gapx="0"
       gapy="0"
       offset="-10"
       offset_type="false"
       scale="0"
       rotate="0"
       mirrorrowsx="false"
       mirrorrowsy="false"
       mirrorcolsx="false"
       mirrorcolsy="false"
       mirrortrans="false"
       shrink_interp="false"
       split_items="false"
       link_styles="false"
       interpolate_scalex="false"
       interpolate_scaley="true"
       interpolate_rotatex="false"
       interpolate_rotatey="true"
       random_scale="false"
       random_rotate="false"
       random_gap_y="false"
       random_gap_x="false"
       transformorigin="" /><clipPath
       clipPathUnits="userSpaceOnUse"
       id="clipPath4"><g
         inkscape:label="Clip"
         id="use4" /></clipPath><clipPath
       clipPathUnits="userSpaceOnUse"
       id="clipPath51"><path
         d="m 104.44922,46.79297 c -47.749411,0 -86.72851,38.98106 -86.72851,86.73047 0,47.74941 38.979099,86.73047 86.72851,86.73047 47.74942,0 86.73048,-38.98106 86.73048,-86.73047 0,-47.74941 -38.98106,-86.73047 -86.73048,-86.73047 z"
         style="baseline-shift:baseline;display:inline;overflow:visible;vector-effect:none;fill:#8a6ced;stroke-width:1;stroke-linecap:round;stroke-linejoin:round;enable-background:accumulate;stop-color:#000000"
         id="path51" /></clipPath></defs><g
     inkscape:label="Layer 1"
     inkscape:groupmode="layer"
     id="layer1"
     transform="translate(-17.72071,-46.79297)"><g
       id="g51"
       clip-path="url(#clipPath51)"><path
         style="fill:none;stroke:#ed6c9f;stroke-width:3;stroke-linecap:round;stroke-linejoin:round;stroke-dasharray:none;stroke-opacity:1"
         d="m 30.261274,126.58192 c 19.73202,-1.42315 40.396576,8.51399 56.429446,9.92623 15.63073,2.37419 28.9381,-2.80861 42.43508,-10.09444 19.1109,-9.45339 42.33648,16.28502 45.22804,29.30058"
         id="path1-9"
         sodipodi:nodetypes="cssc"
         inkscape:label="path1-9" /><path
         style="fill:none;stroke:#ed6c9f;stroke-width:12.7;stroke-linecap:round;stroke-linejoin:round;stroke-dasharray:none;stroke-opacity:1"
         d="m 30.261274,126.58192 c 19.73202,-1.42315 40.39658,8.51399 56.42945,9.92623 15.630726,2.37419 28.938096,-2.80861 42.435076,-10.09444 19.1109,-9.45339 42.33648,16.28502 45.22804,29.30058"
         id="path1-9-4-5-6"
         sodipodi:nodetypes="cssc" /><path
         style="fill:none;stroke:#ed6c9f;stroke-width:12.7;stroke-linecap:round;stroke-linejoin:round;stroke-dasharray:none;stroke-opacity:1"
         d="m 23.911189,151.98184 c 19.73202,-1.42315 40.39658,8.51399 56.42945,9.92623 15.63073,2.37419 28.938101,-2.80861 42.435081,-10.09444 19.1109,-9.45339 42.33648,16.28502 45.22804,29.30058"
         id="path1-9-4-5-6-7"
         sodipodi:nodetypes="cssc" /><path
         style="fill:none;stroke:#ed6c9f;stroke-width:12.7;stroke-linecap:round;stroke-linejoin:round;stroke-dasharray:none;stroke-opacity:1"
         d="m 36.611359,101.182 c 19.73202,-1.42315 40.396585,8.51399 56.429455,9.92623 15.630716,2.37419 28.938086,-2.80861 42.435066,-10.09444 19.1109,-9.45339 42.33648,16.28502 45.22804,29.30058"
         id="path1-9-4-5-6-6"
         sodipodi:nodetypes="cssc" /><path
         style="fill:none;stroke:#ed6c9f;stroke-width:12.7;stroke-linecap:round;stroke-linejoin:round;stroke-dasharray:none;stroke-opacity:1"
         d="m 30.261274,126.58192 c 19.73202,-1.42315 40.39658,8.51399 56.42945,9.92623 15.630726,2.37419 28.938096,-2.80861 42.435076,-10.09444 19.1109,-9.45339 42.33648,16.28502 45.22804,29.30058"
         id="path1-9-4-5-6-7-5"
         sodipodi:nodetypes="cssc" /><path
         style="fill:none;stroke:#ed6c9f;stroke-width:12.7;stroke-linecap:round;stroke-linejoin:round;stroke-dasharray:none;stroke-opacity:1"
         d="m 42.961444,75.78208 c 19.73202,-1.42315 40.396585,8.51399 56.429455,9.92623 15.630711,2.37419 28.938081,-2.80861 42.435071,-10.09444 19.1109,-9.45339 42.33648,16.28502 45.22804,29.30058"
         id="path1-9-4-5-6-6-8"
         sodipodi:nodetypes="cssc" /><path
         style="fill:none;stroke:#ed6c9f;stroke-width:12.7;stroke-linecap:round;stroke-linejoin:round;stroke-dasharray:none;stroke-opacity:1"
         d="m 36.611359,101.182 c 19.73202,-1.42315 40.39658,8.51399 56.42945,9.92623 15.630731,2.37419 28.938091,-2.80861 42.435071,-10.09444 19.11091,-9.45339 42.33649,16.28502 45.22805,29.30058"
         id="path1-9-4-5-6-7-5-1"
         sodipodi:nodetypes="cssc" /><path
         style="fill:none;stroke:#ed6c9f;stroke-width:12.7;stroke-linecap:round;stroke-linejoin:round;stroke-dasharray:none;stroke-opacity:1"
         d="m 23.911189,151.98184 c 19.73202,-1.42315 40.396585,8.51399 56.429455,9.92623 15.630711,2.37419 28.938086,-2.80861 42.435076,-10.09444 19.1109,-9.45339 42.33648,16.28503 45.22804,29.30059"
         id="path1-9-4-5-6-6-8-0"
         sodipodi:nodetypes="cssc" /><path
         style="fill:none;stroke:#ed6c9f;stroke-width:12.7;stroke-linecap:round;stroke-linejoin:round;stroke-dasharray:none;stroke-opacity:1"
         d="m 17.561104,177.38177 c 19.73202,-1.42315 40.39658,8.51399 56.42945,9.92623 15.630731,2.37419 28.938096,-2.80861 42.435076,-10.09444 19.11091,-9.45339 42.33649,16.28502 45.22805,29.30058"
         id="path1-9-4-5-6-7-5-1-8"
         sodipodi:nodetypes="cssc" /><path
         style="fill:none;stroke:#ed6c9f;stroke-width:12.7;stroke-linecap:round;stroke-linejoin:round;stroke-dasharray:none;stroke-opacity:1"
         d="m 17.561104,177.38177 c 19.73202,-1.42315 40.396585,8.51399 56.429455,9.92623 15.630711,2.37419 28.938091,-2.80861 42.435081,-10.09444 19.1109,-9.45339 42.33648,16.28503 45.22804,29.30059"
         id="path1-9-4-5-6-6-8-0-6"
         sodipodi:nodetypes="cssc" /><path
         style="fill:none;stroke:#ed6c9f;stroke-width:12.7;stroke-linecap:round;stroke-linejoin:round;stroke-dasharray:none;stroke-opacity:1"
         d="m 11.211019,202.7817 c 19.73202,-1.42315 40.39658,8.51399 56.42945,9.92623 15.630731,2.37419 28.938096,-2.80861 42.435081,-10.09444 19.11091,-9.45339 42.33649,16.28502 45.22805,29.30058"
         id="path1-9-4-5-6-7-5-1-8-3"
         sodipodi:nodetypes="cssc" /><path
         style="baseline-shift:baseline;display:inline;overflow:visible;opacity:1;vector-effect:none;fill:#8a6ced;stroke-linecap:round;stroke-linejoin:round;enable-background:accumulate;stop-color:#000000;stop-opacity:1"
         d="m 104.44922,46.792969 c -47.749411,0 -86.728517,38.981059 -86.728517,86.730471 0,47.74941 38.979106,86.73047 86.728517,86.73047 47.74941,0 86.73047,-38.98106 86.73047,-86.73047 0,-47.749412 -38.98106,-86.730471 -86.73047,-86.730471 z m 0,25.40039 c 34.02223,0 61.33203,27.307847 61.33203,61.330081 0,34.02223 -27.3098,61.33008 -61.33203,61.33008 -34.022232,0 -61.330079,-27.30785 -61.330079,-61.33008 0,-34.022234 27.307847,-61.330081 61.330079,-61.330081 z"
         id="path2"
         sodipodi:nodetypes="ssssssssss" /></g></g></svg>
